<svg xmlns="http://www.w3.org/2000/svg" width="512" height="512" viewBox="0 0 512 512">
<g>
<path d="M 271.14 506.95 C217.02,512.45 161.93,488.23 127.95,444.00 C105.59,414.89 94.72,383.04 94.67,346.50 C94.65,330.35 96.04,317.91 99.20,306.00 C107.34,275.33 120.63,252.43 143.14,230.30 C168.70,205.17 198.52,190.45 233.78,185.56 C283.63,178.65 332.39,194.39 368.38,229.00 C400.59,259.98 418.00,300.85 418.00,345.50 C418.00,380.19 407.85,411.54 387.07,440.98 C380.83,449.84 364.10,467.00 355.00,473.90 C329.70,493.08 302.64,503.75 271.14,506.95 ZM 242.00 489.96 C256.08,491.69 277.71,489.95 293.00,485.86 C324.87,477.34 352.95,458.36 372.72,432.00 C401.70,393.36 408.96,339.97 391.52,293.65 C374.45,248.30 334.17,214.17 284.95,203.36 C278.28,201.89 272.28,201.50 256.50,201.50 C234.10,201.50 224.14,203.09 206.51,209.47 C172.70,221.71 144.91,246.04 128.04,278.19 C90.58,349.56 117.81,436.71 189.19,473.92 C206.27,482.82 221.50,487.45 242.00,489.96 ZM 299.03 388.00 L 298.50 456.50 L 256.93 456.76 C234.06,456.90 215.05,456.72 214.68,456.34 C214.30,455.97 214.00,440.44 214.00,421.83 L 214.00 388.00 L 145.00 388.00 L 145.00 303.03 L 213.50 302.50 L 213.76 268.75 L 214.03 235.00 L 299.00 235.00 L 299.00 303.00 L 367.00 303.00 L 367.00 388.00 ZM 231.00 372.00 L 231.00 440.03 L 256.25 439.77 L 281.50 439.50 L 282.03 372.00 L 350.00 372.00 L 350.00 320.00 L 282.00 320.00 L 282.00 252.00 L 231.00 252.00 L 231.00 320.00 L 162.00 320.00 L 162.00 370.77 L 164.25 371.37 C165.49,371.70 181.01,371.98 198.75,371.99 ZM 192.27 145.94 C180.25,149.93 162.97,150.11 151.52,146.37 C139.31,142.37 127.13,134.45 119.26,125.38 C116.93,122.70 112.99,116.61 110.52,111.86 C97.39,86.64 101.83,54.91 121.30,34.79 C134.48,21.17 148.35,14.68 167.00,13.42 C207.77,10.66 241.37,44.36 238.68,85.32 C236.85,113.33 218.58,137.19 192.27,145.94 ZM 354.58 139.52 C334.09,143.44 313.10,137.80 297.61,124.21 C281.28,109.88 273.87,93.60 273.95,72.18 C274.05,45.34 287.59,23.62 311.50,11.98 C322.81,6.48 329.40,4.99 342.43,5.01 C360.89,5.04 376.31,11.28 388.97,23.84 C412.89,47.57 416.49,82.66 397.87,110.51 C387.99,125.28 371.61,136.26 354.58,139.52 ZM 0.15 354.25 L 0.00 512.00 L 0.00 0.00 L 0.15 93.75 C0.23,144.30 0.47,184.55 0.68,184.55 C0.69,184.55 0.69,184.53 0.70,184.50 C3.83,160.85 21.86,140.53 45.07,134.47 C55.13,131.84 72.32,132.79 81.50,136.46 C101.56,144.50 115.06,161.33 118.68,182.80 C120.08,191.11 120.08,192.89 118.68,201.20 C116.83,212.18 111.41,223.89 104.59,231.62 C91.14,246.87 67.80,254.83 48.86,250.61 C23.30,244.93 4.01,224.45 0.70,199.50 C0.70,199.48 0.69,199.47 0.69,199.47 C0.47,199.47 0.23,268.50 0.15,354.25 ZM 512.00 512.00 L 511.91 356.75 C511.84,226.55 511.61,202.27 510.51,206.28 C504.37,228.61 486.20,245.93 464.00,250.61 C444.94,254.63 423.10,247.48 409.41,232.73 C395.52,217.76 390.25,198.67 394.48,178.70 C396.63,168.52 402.25,158.76 411.00,149.97 C422.80,138.13 435.44,133.00 452.82,133.00 C470.21,133.00 481.76,137.75 494.11,149.97 C502.28,158.05 507.01,165.90 510.11,176.50 C511.81,182.33 511.86,179.85 511.93,91.25 L 512.00 0.00 L 512.00 512.00 ZM 334.00 123.31 C367.31,128.89 398.44,96.75 391.70,63.73 C387.72,44.16 373.32,28.12 355.50,23.36 C347.89,21.33 333.08,21.62 326.22,23.93 C313.91,28.08 303.14,36.77 296.99,47.51 C279.54,78.02 298.77,117.41 334.00,123.31 ZM 158.00 130.62 C160.72,131.41 166.65,131.84 173.00,131.71 C183.06,131.49 183.88,131.31 192.17,127.33 C215.03,116.36 226.44,92.29 220.15,68.31 C213.28,42.17 188.34,26.25 161.54,30.92 C143.39,34.08 126.96,48.92 121.59,67.00 C119.52,73.97 119.52,88.03 121.59,95.00 C126.51,111.54 140.93,125.66 158.00,130.62 ZM 445.50 233.96 C451.44,235.18 453.81,235.11 461.31,233.52 C470.01,231.68 477.66,227.28 483.53,220.76 C488.83,214.87 491.10,210.78 493.39,203.07 C499.03,184.04 488.65,161.72 470.18,153.20 C462.61,149.71 447.93,148.89 439.85,151.50 C428.30,155.24 419.04,163.42 413.80,174.50 C410.72,181.03 410.50,182.20 410.50,192.00 C410.50,201.80 410.72,202.96 413.81,209.50 C419.99,222.60 430.80,230.95 445.50,233.96 ZM 52.72 233.96 C59.59,235.12 61.10,235.12 67.11,233.98 C79.26,231.68 92.10,222.61 97.10,212.81 C103.69,199.89 103.73,184.18 97.19,171.37 C93.99,165.10 85.32,157.05 78.05,153.60 C71.90,150.69 70.79,150.50 60.00,150.50 C49.13,150.50 48.13,150.68 41.72,153.71 C24.89,161.68 14.83,180.70 17.95,198.63 C21.04,216.38 35.49,231.06 52.72,233.96 Z" fill="rgb(32,128,203)"/>
<path d="M 12.23 227.32 C20.95,238.80 33.82,247.27 48.86,250.61 C33.52,247.20 20.87,239.01 12.23,227.32 ZM 11.44 157.78 C19.46,146.35 31.14,138.11 45.07,134.47 C31.40,138.04 19.53,146.55 11.44,157.78 ZM 0.54 210.01 C0.59,203.20 0.64,199.47 0.69,199.47 C0.69,199.47 0.70,199.48 0.70,199.50 C0.89,200.96 1.14,202.40 1.44,203.83 C1.02,202.85 0.74,203.82 0.54,210.01 ZM 0.53 178.29 C0.72,181.40 0.99,181.58 1.38,180.49 C1.10,181.81 0.88,183.15 0.70,184.50 C0.69,184.53 0.69,184.55 0.68,184.55 C0.63,184.55 0.58,182.33 0.53,178.29 Z" fill="rgb(79,154,215)"/>
<path d="M 242.00 489.96 C221.50,487.45 206.27,482.82 189.19,473.92 C117.81,436.71 90.58,349.56 128.04,278.19 C144.91,246.04 172.70,221.71 206.51,209.47 C224.14,203.09 234.10,201.50 256.50,201.50 C272.28,201.50 278.28,201.89 284.95,203.36 C334.17,214.17 374.45,248.30 391.52,293.65 C408.96,339.97 401.70,393.36 372.72,432.00 C352.95,458.36 324.87,477.34 293.00,485.86 C277.71,489.95 256.08,491.69 242.00,489.96 ZM 299.03 388.00 L 367.00 388.00 L 367.00 303.00 L 299.00 303.00 L 299.00 235.00 L 214.03 235.00 L 213.76 268.75 L 213.50 302.50 L 145.00 303.03 L 145.00 388.00 L 214.00 388.00 L 214.00 421.83 C214.00,440.44 214.30,455.97 214.68,456.34 C215.05,456.72 234.06,456.90 256.93,456.76 L 298.50 456.50 ZM 334.00 123.31 C298.77,117.41 279.54,78.02 296.99,47.51 C303.14,36.77 313.91,28.08 326.22,23.93 C333.08,21.62 347.89,21.33 355.50,23.36 C373.32,28.12 387.72,44.16 391.70,63.73 C398.44,96.75 367.31,128.89 334.00,123.31 ZM 158.00 130.62 C140.93,125.66 126.51,111.54 121.59,95.00 C119.52,88.03 119.52,73.97 121.59,67.00 C126.96,48.92 143.39,34.08 161.54,30.92 C188.34,26.25 213.28,42.17 220.15,68.31 C226.44,92.29 215.03,116.36 192.17,127.33 C183.88,131.31 183.06,131.49 173.00,131.71 C166.65,131.84 160.72,131.41 158.00,130.62 ZM 445.50 233.96 C430.80,230.95 419.99,222.60 413.81,209.50 C410.72,202.96 410.50,201.80 410.50,192.00 C410.50,182.20 410.72,181.03 413.80,174.50 C419.04,163.42 428.30,155.24 439.85,151.50 C447.93,148.89 462.61,149.71 470.18,153.20 C488.65,161.72 499.03,184.04 493.39,203.07 C491.10,210.78 488.83,214.87 483.53,220.76 C477.66,227.28 470.01,231.68 461.31,233.52 C453.81,235.11 451.44,235.18 445.50,233.96 ZM 52.72 233.96 C35.49,231.06 21.04,216.38 17.95,198.63 C14.83,180.70 24.89,161.68 41.72,153.71 C48.13,150.68 49.13,150.50 60.00,150.50 C70.79,150.50 71.90,150.69 78.05,153.60 C85.32,157.05 93.99,165.10 97.19,171.37 C103.73,184.18 103.69,199.89 97.10,212.81 C92.10,222.61 79.26,231.68 67.11,233.98 C61.10,235.12 59.59,235.12 52.72,233.96 ZM 0.94 181.06 C1.17,180.48 1.46,179.66 1.78,178.70 C1.63,179.29 1.50,179.89 1.38,180.49 C1.21,180.96 1.06,181.20 0.94,181.06 ZM 1.16 203.51 C1.24,203.46 1.34,203.59 1.44,203.83 C1.54,204.29 1.64,204.76 1.75,205.23 C1.54,204.57 1.34,203.99 1.16,203.51 ZM 10.19 159.58 C11.47,157.62 12.86,155.75 14.34,153.98 C13.33,155.20 12.36,156.47 11.44,157.78 C11.01,158.37 10.60,158.97 10.19,159.58 ZM 12.23 227.32 C13.14,228.55 14.10,229.75 15.10,230.90 C13.71,229.31 12.41,227.64 11.19,225.90 C11.53,226.38 11.88,226.85 12.23,227.32 Z" fill="rgb(153,200,253)"/>
<path d="M 0.00 357.00 C0.00,271.75 0.19,202.00 0.43,202.00 C0.67,202.00 1.60,204.57 2.52,207.71 C8.89,229.61 26.09,245.55 48.86,250.61 C67.80,254.83 91.14,246.87 104.59,231.62 C111.41,223.89 116.83,212.18 118.68,201.20 C120.08,192.89 120.08,191.11 118.68,182.80 C115.06,161.33 101.56,144.50 81.50,136.46 C72.32,132.79 55.13,131.84 45.07,134.47 C24.56,139.82 8.54,155.56 2.52,176.29 C1.60,179.43 0.67,182.00 0.43,182.00 C0.19,182.00 0.00,141.05 0.00,91.00 L 0.00 0.00 L 256.00 0.00 L 512.00 0.00 L 511.93 91.25 C511.86,179.85 511.81,182.33 510.11,176.50 C507.01,165.90 502.28,158.05 494.11,149.97 C481.76,137.75 470.21,133.00 452.82,133.00 C435.44,133.00 422.80,138.13 411.00,149.97 C402.25,158.76 396.63,168.52 394.48,178.70 C390.25,198.67 395.52,217.76 409.41,232.73 C423.10,247.48 444.94,254.63 464.00,250.61 C486.20,245.93 504.37,228.61 510.51,206.28 C511.61,202.27 511.84,226.55 511.91,356.75 L 512.00 512.00 L 256.00 512.00 L 0.00 512.00 L 0.00 357.00 ZM 271.14 506.95 C302.64,503.75 329.70,493.08 355.00,473.90 C364.10,467.00 380.83,449.84 387.07,440.98 C407.85,411.54 418.00,380.19 418.00,345.50 C418.00,300.85 400.59,259.98 368.38,229.00 C332.39,194.39 283.63,178.65 233.78,185.56 C198.52,190.45 168.70,205.17 143.14,230.30 C120.63,252.43 107.34,275.33 99.20,306.00 C96.04,317.91 94.65,330.35 94.67,346.50 C94.72,383.04 105.59,414.89 127.95,444.00 C161.93,488.23 217.02,512.45 271.14,506.95 ZM 192.27 145.94 C218.58,137.19 236.85,113.33 238.68,85.32 C241.37,44.36 207.77,10.66 167.00,13.42 C148.35,14.68 134.48,21.17 121.30,34.79 C101.83,54.91 97.39,86.64 110.52,111.86 C112.99,116.61 116.93,122.70 119.26,125.38 C127.13,134.45 139.31,142.37 151.52,146.37 C162.97,150.11 180.25,149.93 192.27,145.94 ZM 354.58 139.52 C371.61,136.26 387.99,125.28 397.87,110.51 C416.49,82.66 412.89,47.57 388.97,23.84 C376.31,11.28 360.89,5.04 342.43,5.01 C329.40,4.99 322.81,6.48 311.50,11.98 C287.59,23.62 274.05,45.34 273.95,72.18 C273.87,93.60 281.28,109.88 297.61,124.21 C313.10,137.80 334.09,143.44 354.58,139.52 ZM 231.00 406.02 L 231.00 372.00 L 198.75 371.99 C181.01,371.98 165.49,371.70 164.25,371.37 L 162.00 370.77 L 162.00 345.38 L 162.00 320.00 L 196.50 320.00 L 231.00 320.00 L 231.00 286.00 L 231.00 252.00 L 256.50 252.00 L 282.00 252.00 L 282.00 286.00 L 282.00 320.00 L 316.00 320.00 L 350.00 320.00 L 350.00 346.00 L 350.00 372.00 L 316.01 372.00 L 282.03 372.00 L 281.76 405.75 L 281.50 439.50 L 256.25 439.77 L 231.00 440.03 L 231.00 406.02 Z" fill="rgb(253,254,254)"/>
</g>
</svg>